<?xml version="1.0" standalone="no"?>
<!DOCTYPE svg PUBLIC "-//W3C//DTD SVG 20010904//EN"
 "http://www.w3.org/TR/2001/REC-SVG-20010904/DTD/svg10.dtd">
<svg version="1.0" xmlns="http://www.w3.org/2000/svg"
 width="559.000000pt" height="447.000000pt" viewBox="0 0 559.000000 447.000000"
 preserveAspectRatio="xMidYMid meet">

<g transform="translate(0.000000,447.000000) scale(0.100000,-0.100000)"
fill="#000000" stroke="none">
<path d="M902 2635 c-24 -20 -54 -28 -153 -44 -115 -18 -304 -41 -492 -59 -43
-4 -78 -11 -79 -17 -1 -5 18 -25 43 -44 24 -18 45 -37 47 -41 2 -5 -15 -11
-38 -15 -23 -4 -39 -12 -37 -18 2 -6 29 -24 60 -40 57 -30 61 -46 12 -47 -53
-1 -44 -18 29 -55 78 -40 115 -44 51 -6 -39 22 -39 41 -1 41 13 0 63 11 110
25 156 45 316 138 421 244 77 79 93 79 165 6 137 -139 321 -232 554 -280 l29
-6 -44 -30 c-55 -38 -19 -30 65 14 62 33 61 37 -9 52 -29 6 -28 7 37 43 37 19
65 39 62 43 -2 4 -22 10 -45 14 -22 4 -39 10 -37 15 2 4 23 23 47 41 58 45 62
59 17 59 -60 0 -331 30 -504 55 -140 21 -168 28 -194 50 -38 32 -78 32 -116 0z
m-62 -79 c0 -7 -117 -75 -205 -119 -89 -44 -262 -107 -295 -107 -19 0 -70 36
-70 50 0 4 26 11 58 15 118 14 357 86 457 138 55 28 55 29 55 23z m420 -74
c104 -38 212 -67 305 -82 102 -17 103 -17 65 -45 -19 -14 -41 -25 -50 -25 -56
0 -303 104 -432 182 -79 47 -88 59 -20 25 26 -14 85 -38 132 -55z m-580 53 c0
-6 -107 -37 -259 -75 l-124 -32 -29 29 -29 29 148 13 c81 7 177 18 213 26 83
16 80 16 80 10z m651 -14 c31 -5 122 -15 203 -22 l147 -13 -29 -29 -29 -29
-124 32 c-158 39 -259 69 -259 76 0 3 8 3 18 0 9 -3 42 -9 73 -15z"/>
<path d="M3150 2296 l0 -226 40 0 40 0 0 50 c0 28 4 50 8 50 4 0 30 -22 57
-50 45 -46 53 -50 97 -50 26 0 48 3 48 7 0 4 -28 36 -62 70 l-62 63 57 58 c31
32 57 61 57 65 0 4 -22 7 -48 7 -44 0 -52 -4 -92 -45 -24 -25 -48 -45 -52 -45
-4 0 -9 60 -10 133 l-3 132 -37 3 -38 3 0 -225z"/>
<path d="M1992 2492 c-9 -7 -12 -56 -10 -213 l3 -204 82 -3 c148 -5 213 29
213 111 0 30 -7 53 -21 71 -21 27 -21 28 -4 66 38 84 -4 158 -97 171 -72 10
-150 10 -166 1z m159 -72 c14 -8 19 -21 19 -50 0 -45 -22 -63 -68 -58 -24 3
-27 8 -30 47 -2 24 -1 50 2 57 6 16 49 18 77 4z m24 -200 c36 -39 -11 -88 -76
-78 -19 2 -25 10 -27 36 -5 52 3 62 46 62 26 0 45 -7 57 -20z"/>
<path d="M3565 2488 c-3 -8 -4 -103 -3 -213 l3 -200 115 0 115 0 3 38 3 37
-75 0 -76 0 0 45 0 44 68 3 67 3 3 37 3 37 -68 3 -68 3 0 45 c0 40 2 44 25 45
14 1 47 2 73 3 l48 2 -3 38 -3 37 -113 3 c-85 2 -114 0 -117 -10z"/>
<path d="M5150 2385 c0 -38 -3 -45 -20 -45 -16 0 -20 -7 -20 -34 0 -25 5 -35
20 -39 18 -5 20 -14 20 -76 0 -59 4 -74 23 -97 19 -21 31 -26 66 -26 53 1 61
8 50 49 -7 22 -16 33 -32 35 -20 3 -22 9 -22 58 0 53 1 55 28 58 24 3 27 8 27
38 0 31 -2 34 -30 34 -29 0 -30 2 -30 45 l0 45 -40 0 -40 0 0 -45z"/>
<path d="M2464 2330 c-12 -5 -34 -24 -48 -43 -20 -26 -26 -45 -26 -86 0 -44 5
-56 33 -87 68 -75 185 -57 223 33 40 94 -23 194 -121 192 -22 0 -50 -4 -61 -9z
m106 -80 c58 -58 -31 -149 -92 -93 -22 20 -23 70 -1 95 21 24 68 23 93 -2z"/>
<path d="M2840 2327 c-76 -38 -93 -158 -32 -219 25 -26 40 -32 84 -35 63 -5
94 9 125 56 41 61 22 154 -39 191 -37 23 -101 26 -138 7z m110 -77 c40 -40 14
-110 -42 -110 -42 0 -68 25 -68 66 0 57 69 85 110 44z"/>
<path d="M3910 2328 c1 -7 29 -67 65 -133 57 -107 67 -120 92 -123 27 -3 32 4
96 124 37 69 67 130 67 135 0 5 -21 9 -46 9 l-45 0 -31 -70 c-17 -39 -35 -69
-40 -68 -5 2 -22 33 -38 68 l-29 65 -45 3 c-33 2 -46 -1 -46 -10z"/>
<path d="M4414 2331 c-30 -13 -71 -66 -79 -101 -20 -92 80 -182 180 -160 45
10 85 36 85 55 0 20 -46 30 -76 16 -14 -6 -33 -11 -43 -11 -19 0 -61 35 -61
50 0 6 41 10 96 10 l97 0 -6 42 c-8 63 -51 100 -119 105 -29 1 -62 -1 -74 -6z
m98 -58 c33 -29 22 -43 -32 -43 -43 0 -50 3 -50 20 0 36 51 51 82 23z"/>
<path d="M4720 2205 l0 -135 45 0 45 0 0 83 c0 91 15 127 53 127 45 0 52 -14
57 -112 l5 -93 44 -3 43 -3 -4 105 c-3 100 -5 108 -31 134 -26 26 -32 27 -142
29 l-115 3 0 -135z"/>
<path d="M624 2166 c-10 -26 4 -48 28 -44 17 2 23 10 23 28 0 18 -6 26 -23 28
-13 2 -25 -3 -28 -12z"/>
<path d="M702 2153 c2 -20 9 -29 26 -31 19 -3 22 1 22 27 0 27 -4 31 -26 31
-22 0 -25 -4 -22 -27z"/>
<path d="M900 2152 c-28 -29 -30 -35 -30 -106 0 -41 5 -78 10 -81 6 -4 10 22
10 69 0 63 4 80 20 96 44 44 100 13 101 -56 0 -21 4 -57 8 -79 7 -34 9 -27 10
46 1 99 -11 125 -66 135 -27 5 -37 1 -63 -24z"/>
<path d="M1144 2165 c-9 -23 3 -45 26 -45 16 0 20 7 20 30 0 23 -4 30 -20 30
-11 0 -23 -7 -26 -15z"/>
<path d="M1214 2166 c-10 -26 4 -48 28 -44 17 2 23 10 23 28 0 18 -6 26 -23
28 -13 2 -25 -3 -28 -12z"/>
<path d="M630 2095 c-18 -21 -5 -47 22 -43 26 3 37 36 16 49 -18 12 -24 11
-38 -6z"/>
<path d="M707 2104 c-4 -4 -7 -18 -7 -31 0 -18 5 -23 26 -23 22 0 25 4 22 27
-3 27 -26 41 -41 27z"/>
<path d="M1152 2101 c-21 -13 -10 -46 16 -49 20 -3 23 0 20 24 -3 30 -16 38
-36 25z"/>
<path d="M1220 2095 c-18 -21 -5 -47 22 -43 26 3 37 36 16 49 -18 12 -24 11
-38 -6z"/>
<path d="M1406 2066 c-5 -27 -6 -78 -3 -113 l6 -65 -32 6 c-183 38 -401 45
-592 20 -116 -15 -251 -39 -281 -51 -11 -4 -14 8 -15 63 -2 108 -16 146 -18
49 -1 -44 -8 -97 -15 -117 -16 -44 -20 -43 87 -23 285 54 654 60 860 14 26 -6
50 -9 53 -7 2 3 -3 25 -12 49 -8 24 -19 85 -23 134 -7 89 -7 89 -15 41z"/>
</g>
</svg>
